<svg xmlns="http://www.w3.org/2000/svg" width="32" height="32" viewBox="0 0 32 32">
  <defs>
    <linearGradient id="gradient1" x1="0%" y1="0%" x2="100%" y2="100%">
      <stop offset="0%" stop-color="#4A90E2"/>
      <stop offset="100%" stop-color="#9B51E0"/>
    </linearGradient>
  </defs>

  <!-- Brain shape -->
  <path fill="url(#gradient1)" d="M16 4C11.5 4 8 7.5 8 12c0 2.3 1 4.3 2.5 5.7C9.5 19.3 8.5 21.3 8.5 23.5c0 4.1 3.4 7.5 7.5 7.5s7.5-3.4 7.5-7.5c0-2.2-1-4.2-2.5-5.8C22.5 16.3 24 14.3 24 12c0-4.5-3.5-8-8-8zm0 2c3.3 0 6 2.7 6 6 0 1.8-0.8 3.4-2 4.5-0.8 0.7-0.8 1.9 0 2.6 1.2 1.1 2 2.7 2 4.5 0 3.3-2.7 6-6 6s-6-2.7-6-6c0-1.8 0.8-3.4 2-4.5 0.8-0.7 0.8-1.9 0-2.6C10.8 15.4 10 13.8 10 12c0-3.3 2.7-6 6-6z"/>

  <!-- Question mark -->
  <path fill="#FFF" d="M16 14.5c-0.8 0-1.5 0.7-1.5 1.5s0.7 1.5 1.5 1.5 1.5-0.7 1.5-1.5-0.7-1.5-1.5-1.5zm0-6c-1.1 0-2 0.9-2 2 0 0.3 0.2 0.5 0.5 0.5s0.5-0.2 0.5-0.5c0-0.6 0.4-1 1-1s1 0.4 1 1-0.4 1-1 1c-0.3 0-0.5 0.2-0.5 0.5v2c0 0.3 0.2 0.5 0.5 0.5s0.5-0.2 0.5-0.5v-1.6c0.9-0.2 1.5-1 1.5-1.9 0-1.1-0.9-2-2-2z"/>
</svg>